HIERARCHY
ROOT Hips
{
 OFFSET 0.000000 0.000000 0.000000
 CHANNELS 6 Xposition Yposition Zposition Yrotation Xrotation Zrotation
 JOINT Chest
 {
  OFFSET 0.000000 10.388337 0.005184
  CHANNELS 3 Yrotation Xrotation Zrotation
  JOINT Chest2
  {
   OFFSET 0.000000 10.458247 -0.010579
   CHANNELS 3 Yrotation Xrotation Zrotation
   JOINT Chest3
   {
    OFFSET 0.000000 10.415828 0.000000
    CHANNELS 3 Yrotation Xrotation Zrotation
    JOINT Chest4
    {
     OFFSET 0.000000 10.405206 0.000000
     CHANNELS 3 Yrotation Xrotation Zrotation
     JOINT Neck
     {
      OFFSET 0.000000 15.720090 0.000000
      CHANNELS 3 Yrotation Xrotation Zrotation
      JOINT Head
      {
       OFFSET 0.000000 9.732643 -0.022378
       CHANNELS 3 Yrotation Xrotation Zrotation
       End Site
       {
        OFFSET 0.000000 18.603619 -0.011814
       }
      }
     }
     JOINT RightCollar
     {
      OFFSET -3.167735 10.388953 0.000000
      CHANNELS 3 Yrotation Xrotation Zrotation
      JOINT RightShoulder
      {
       OFFSET -14.584825 0.000000 0.000000
       CHANNELS 3 Yrotation Xrotation Zrotation
       JOINT RightElbow
       {
        OFFSET 0.000000 -31.921689 0.000000
        CHANNELS 3 Yrotation Xrotation Zrotation
        JOINT RightWrist
        {
         OFFSET 0.000000 -25.835217 0.000000
         CHANNELS 3 Yrotation Xrotation Zrotation
         End Site
         {
          OFFSET 0.000000 -19.128920 0.000000
         }
        }
       }
      }
     }
     JOINT LeftCollar
     {
      OFFSET 3.167735 10.388953 0.000000
      CHANNELS 3 Yrotation Xrotation Zrotation
      JOINT LeftShoulder
      {
       OFFSET 14.584825 0.000000 0.000000
       CHANNELS 3 Yrotation Xrotation Zrotation
       JOINT LeftElbow
       {
        OFFSET 0.000000 -31.921689 0.000000
        CHANNELS 3 Yrotation Xrotation Zrotation
        JOINT LeftWrist
        {
         OFFSET 0.000000 -25.835217 0.000000
         CHANNELS 3 Yrotation Xrotation Zrotation
         End Site
         {
          OFFSET 0.000000 -19.128920 0.000000
         }
        }
       }
      }
     }
    }
   }
  }
 }
 JOINT RightHip
 {
  OFFSET -8.403278 -0.025659 -0.002592
  CHANNELS 3 Yrotation Xrotation Zrotation
  JOINT RightKnee
  {
   OFFSET 0.000000 -44.040977 0.002477
   CHANNELS 3 Yrotation Xrotation Zrotation
   JOINT RightAnkle
   {
    OFFSET 0.000000 -42.951162 0.004189
    CHANNELS 3 Yrotation Xrotation Zrotation
    JOINT RightToe
    {
     OFFSET 0.000000 -5.494238 12.197485
     CHANNELS 3 Yrotation Xrotation Zrotation
     End Site
     {
      OFFSET 0.000000 -1.538716 6.371628
     }
    }
   }
  }
 }
 JOINT LeftHip
 {
  OFFSET 8.403278 -0.025659 -0.002592
  CHANNELS 3 Yrotation Xrotation Zrotation
  JOINT LeftKnee
  {
   OFFSET 0.000000 -44.040977 0.002477
   CHANNELS 3 Yrotation Xrotation Zrotation
   JOINT LeftAnkle
   {
    OFFSET 0.000000 -42.951162 0.004189
    CHANNELS 3 Yrotation Xrotation Zrotation
    JOINT LeftToe
    {
     OFFSET 0.000000 -5.494238 12.197485
     CHANNELS 3 Yrotation Xrotation Zrotation
     End Site
     {
      OFFSET 0.000000 -1.538716 6.371628
     }
    }
   }
  }
 }
}
MOTION
Frames: 12
Frame Time: 0.008333
6.486033 88.482308 8.632141 104.639469 -4.368821 -2.380354 -0.617877 8.028416 6.934288 -0.074185 0.518932 0.486874 -0.124899 0.893281 0.837322 -0.636165 7.334195 6.809888 -9.635739 24.132889 -5.249022 -15.995717 8.901530 -7.052325 11.724628 -16.161321 -20.441802 21.552672 -71.920852 -51.062882 -95.070343 -77.781617 91.824366 -12.109028 -50.981119 -24.828866 -5.696586 -19.566759 32.781698 -92.892459 -66.867694 114.959428 -51.940556 -77.235532 36.214942 -6.829343 -36.193209 16.200275 -12.905975 -1.920269 1.337355 -19.599819 20.513624 -0.930162 -15.918677 -12.164143 1.263193 -0.027725 -0.739858 0.980791 -18.939846 -16.308100 1.594671 1.950285 43.022857 -1.972060 -6.233957 -18.771143 5.934732 0.003366 0.026796 -0.252797
6.649601 88.413057 8.631021 105.605869 -4.621905 -2.738613 -0.789794 7.945096 7.233249 -0.089410 0.528298 0.526530 -0.150632 0.908261 0.904227 -0.801769 7.281555 7.163786 -9.966615 24.096892 -5.481232 -16.531001 8.821794 -7.384116 11.986353 -16.049034 -20.306952 21.279622 -72.077048 -50.918450 -96.866817 -77.928279 93.325013 -12.072212 -51.286149 -24.775923 -5.474694 -19.367411 32.965316 -92.946246 -66.661035 115.045469 -52.733878 -77.062599 36.866898 -7.552671 -36.230038 16.633704 -12.622877 -1.148837 1.687988 -19.778787 20.018225 -0.955827 -16.581808 -12.121625 1.170764 -0.006177 -0.650099 1.073762 -19.270124 -16.150289 1.760144 1.204843 43.483751 -2.308089 -6.216431 -18.953021 6.089417 0.009781 0.027773 -0.215016
6.785739 88.399286 8.606095 106.449369 -4.788550 -3.042670 -0.882478 7.846135 7.533582 -0.098931 0.533190 0.560333 -0.166606 0.915769 0.961234 -0.893096 7.208042 7.467519 -10.288472 24.093240 -5.685947 -17.057430 8.803594 -7.671962 12.124267 -15.939484 -20.142225 21.082295 -72.229288 -50.802726 -98.653197 -78.206196 94.814792 -12.028953 -51.580633 -24.760052 -5.380261 -19.175665 33.134960 -92.906187 -66.476250 115.043235 -53.710074 -76.883614 37.725565 -8.262567 -36.370208 17.258763 -12.572841 -0.506123 2.067430 -20.042138 19.454823 -1.115678 -17.082867 -12.026691 0.880823 0.013037 -0.584366 1.283113 -19.462380 -15.975058 1.862599 0.370211 43.686584 -2.653195 -6.151699 -19.023387 6.219160 0.013715 0.037043 -0.177868
6.912537 88.441463 8.545118 107.108438 -5.004088 -3.258059 -0.834280 7.848617 7.827331 -0.104153 0.532882 0.585991 -0.175308 0.914653 1.004544 -0.937477 7.113985 7.706700 -10.584964 24.133777 -5.870017 -17.544261 8.867997 -7.933596 12.148201 -15.813657 -19.943403 20.925858 -72.378459 -50.672067 -100.557520 -78.522916 96.483267 -11.876041 -51.839110 -24.831225 -5.385072 -18.965517 33.296018 -92.750767 -66.299472 114.936509 -54.691704 -76.751046 38.647645 -8.845346 -36.567474 17.914519 -12.656481 0.093644 2.391317 -20.526698 18.898603 -1.487037 -17.261889 -11.851128 0.545795 0.010809 -0.572237 1.499690 -19.436684 -15.526906 1.854312 -0.386815 43.435393 -2.902855 -6.259034 -19.139534 6.304003 0.104742 0.279079 -0.102566
6.987203 88.533145 8.446867 107.720646 -5.051010 -3.322049 -0.846105 7.746125 8.049041 -0.107339 0.527475 0.603635 -0.180643 0.905086 1.034425 -0.967441 6.998469 7.885604 -10.834882 24.221332 -6.048313 -17.949875 9.018404 -8.201298 12.128600 -15.655030 -19.734491 20.759681 -72.521710 -50.465157 -102.520808 -78.835895 98.294018 -11.646770 -52.064475 -24.958795 -5.405516 -18.737527 33.441629 -92.431147 -66.122068 114.664621 -55.543099 -76.710433 39.512734 -9.353161 -36.826851 18.534947 -12.891055 0.388661 2.588320 -21.118337 18.416131 -1.983673 -17.232016 -11.579253 0.270732 -0.013076 -0.628965 1.638908 -19.383109 -15.343732 1.720128 -0.927301 43.183571 -3.023000 -6.405177 -18.950987 6.423620 0.127087 0.260456 -0.060070
7.055103 88.675397 8.301942 108.347702 -5.197233 -3.258198 -1.014821 7.826039 8.212088 -0.109574 0.518653 0.614000 -0.184459 0.889909 1.052105 -0.995702 6.874219 8.008064 -11.021177 24.344898 -6.227462 -18.242026 9.233467 -8.489883 12.139159 -15.465107 -19.555515 20.500908 -72.657042 -50.102862 -104.476056 -79.131234 100.174268 -11.426770 -52.265249 -25.080655 -5.372160 -18.513682 33.557525 -91.934363 -65.934578 114.220620 -56.220149 -76.790122 40.261165 -9.816319 -37.163732 19.084920 -13.163286 0.224743 2.510959 -21.520463 18.959057 -2.539376 -17.571846 -11.296096 0.232042 0.076131 -1.141867 1.742720 -19.374369 -15.007840 1.400133 -1.199381 42.698756 -2.989077 -6.675536 -18.568677 6.530977 0.172871 0.181973 -0.008867
7.051658 88.858013 8.134505 108.678704 -5.094767 -3.036625 -1.074195 7.728384 8.324620 -0.111243 0.509623 0.617529 -0.187379 0.874531 1.058265 -1.023738 6.770963 8.069036 -11.137939 24.485249 -6.403603 -18.410950 9.478068 -8.791625 12.216735 -15.261972 -19.436473 20.116399 -72.776836 -49.569289 -106.341240 -79.388837 102.045787 -11.252942 -52.463527 -25.186064 -5.254649 -18.322016 33.635390 -91.336489 -65.740852 113.702011 -56.743924 -76.985086 40.863472 -10.230768 -37.574961 19.564507 -13.010407 0.015474 2.391144 -21.494770 18.831376 -2.807643 -18.253186 -10.960992 0.086198 0.071471 -1.278489 1.746741 -19.193663 -14.872571 1.033357 -1.219857 42.001900 -2.839695 -6.940060 -18.039413 6.624948 0.166936 0.071261 0.016996
6.993734 89.077386 7.931767 108.901313 -4.860753 -2.608353 -1.199158 7.580732 8.327738 -0.113139 0.502561 0.614139 -0.190740 0.862646 1.052708 -1.059896 6.711117 8.060114 -11.187632 24.626409 -6.569608 -18.462679 9.723761 -9.091209 12.357460 -15.070715 -19.383269 19.719975 -72.860757 -48.985112 -108.031506 -79.586716 103.800721 -11.171824 -52.658989 -25.256920 -5.055351 -18.187011 33.679417 -90.721988 -65.561369 113.221841 -57.139204 -77.269395 41.292479 -10.572315 -38.033349 19.979835 -12.600991 -0.425690 2.067356 -21.235422 18.708660 -2.887401 -19.343513 -10.594996 -0.122664 0.152344 -1.372523 1.756592 -19.007402 -14.824981 0.505613 -1.039859 41.038080 -2.626955 -7.145746 -17.335773 6.717950 0.096586 -0.056625 0.011622
6.884457 89.328397 7.704296 108.935682 -4.512479 -1.998656 -1.263596 7.407369 8.260429 -0.115935 0.497235 0.603509 -0.195705 0.853867 1.034886 -1.114103 6.693981 7.977608 -11.178690 24.758795 -6.716584 -18.414344 9.954207 -9.369517 12.528714 -14.917422 -19.385510 19.525942 -72.880433 -48.566057 -109.434486 -79.706031 105.272636 -11.221903 -52.824671 -25.253508 -4.803940 -18.125122 33.701161 -90.119529 -65.418490 112.830396 -57.390421 -77.625268 41.508568 -10.831944 -38.482397 20.329857 -11.947011 -1.003967 1.570262 -21.024180 18.503290 -2.895110 -20.328956 -10.289916 -0.366718 0.222316 -1.327285 1.724603 -18.753337 -14.815649 -0.132254 -0.747746 39.791389 -2.417954 -7.338663 -16.555208 6.782617 0.047281 -0.105639 0.016231
6.747257 89.606664 7.476525 108.835248 -4.139610 -1.356611 -1.255427 7.312158 8.252521 -0.119379 0.492911 0.586674 -0.201840 0.846925 1.006545 -1.183551 6.708935 7.831801 -11.124407 24.877558 -6.835047 -18.291882 10.161820 -9.605891 12.695453 -14.824934 -19.427678 19.686643 -72.819071 -48.489624 -110.379091 -79.722296 106.250038 -11.404099 -52.928299 -25.142907 -4.533856 -18.140792 33.715122 -89.539902 -65.322398 112.535614 -57.482410 -78.036423 41.503461 -10.996563 -38.859480 20.606724 -11.251204 -1.522190 1.050262 -21.049127 18.117584 -2.949647 -20.850950 -9.937906 -0.606749 0.254126 -1.245770 1.619966 -18.522963 -14.796418 -0.737784 -0.396907 38.431564 -2.273165 -7.514848 -15.637874 6.801865 0.057706 -0.216178 0.053612
6.581416 89.904380 7.246889 108.728549 -3.750220 -0.664472 -1.285006 7.296334 8.236424 -0.122552 0.490035 0.566584 -0.207535 0.842506 0.972641 -1.252827 6.750630 7.647336 -11.036330 24.982635 -6.917837 -18.117570 10.347402 -9.784846 12.840263 -14.798821 -19.496780 20.198172 -72.687519 -48.799555 -110.666499 -79.630458 106.524992 -11.708758 -52.963434 -24.905798 -4.268311 -18.225304 33.733873 -88.981592 -65.257844 112.317798 -57.418158 -78.466485 41.330388 -11.012556 -39.148260 20.775242 -10.776686 -1.937849 0.495663 -21.282072 17.496089 -3.068196 -20.948019 -9.528672 -0.808786 0.273404 -1.127997 1.442066 -18.456585 -14.759483 -1.331958 0.050491 36.926857 -2.200113 -7.646189 -14.610114 6.796389 0.067590 -0.341184 0.100629
6.386080 90.213572 7.022097 108.574340 -3.339205 0.054296 -1.305784 7.328304 8.189016 -0.123644 0.489293 0.546085 -0.209641 0.841709 0.937976 -1.293039 6.816502 7.450035 -10.927392 25.076075 -6.957835 -17.916160 10.515449 -9.890934 12.940243 -14.827359 -19.572531 20.951303 -72.514446 -49.418166 -110.214195 -79.463693 106.032984 -12.110051 -52.935130 -24.558531 -4.030784 -18.358508 33.767280 -88.443202 -65.198549 112.148302 -57.159242 -78.874553 41.011009 -10.846144 -39.363247 20.812526 -10.572909 -2.236709 -0.058270 -21.525248 16.622761 -3.185937 -20.724267 -9.089722 -0.955178 0.238687 -0.951620 1.178750 -18.562046 -14.717145 -1.867712 0.665441 35.306791 -2.190807 -7.765046 -13.494456 6.771106 0.077496 -0.476837 0.157284
